Coordinates
version=1
nRows=30
nColumns=38
inDegrees=no

Units are S.I. units (second, meters, Newtons, ...)
If the header above contains a line with 'inDegrees', this indicates whether rotational values are in degrees (yes) or radians (no).

endheader
time	pelvis_tilt	pelvis_list	pelvis_rotation	pelvis_tx	pelvis_ty	pelvis_tz	hip_flexion_r	hip_adduction_r	hip_rotation_r	knee_angle_r	ankle_angle_r	subtalar_angle_r	mtp_angle_r	hip_flexion_l	hip_adduction_l	hip_rotation_l	knee_angle_l	ankle_angle_l	subtalar_angle_l	mtp_angle_l	lumbar_extension	lumbar_bending	lumbar_rotation	arm_flex_r	arm_add_r	arm_rot_r	elbow_flex_r	pro_sup_r	wrist_flex_r	wrist_dev_r	arm_flex_l	arm_add_l	arm_rot_l	elbow_flex_l	pro_sup_l	wrist_flex_l	wrist_dev_l
0.94	-3.04013	1.41653	-1.50567	0.605858	0.422295	0.919426	0.325631	-0.0795758	-0.2344	0.157805	0.174991	0	0	-0.426879	0.0664413	-0.0806006	0.00768809	0.245622	0	0	-0.322418	-0.0831914	-0.167709	-0.0831561	-0.236779	0.028014	0.478688	1.17701	0	0	0.114635	-0.474148	0.36154	0.694652	1.25742	0	0
0.95	-3.04167	1.41843	-1.50449	0.605913	0.433246	0.917204	0.305123	-0.0635772	-0.19634	0.0912469	0.154343	0	0	-0.435424	0.0635634	-0.0864871	0.0141799	0.257734	0	0	-0.319501	-0.0836212	-0.167332	-0.0833242	-0.235222	0.02701	0.480179	1.17808	0	0	0.116901	-0.472934	0.356457	0.695168	1.25935	0	0
0.96	-3.03499	1.42038	-1.51155	0.605876	0.444501	0.914844	0.324958	-0.071149	-0.244392	0.119917	0.178106	0	0	-0.444162	0.0621094	-0.0910474	0.0206777	0.26836	0	0	-0.316602	-0.0847275	-0.167193	-0.0845037	-0.234098	0.0242667	0.483339	1.1796	0	0	0.117616	-0.471699	0.35095	0.697039	1.26015	0	0
0.97	-3.03886	1.421	-1.50538	0.605419	0.455912	0.912763	0.321433	-0.066449	-0.251331	0.111799	0.175587	0	0	-0.452392	0.0578396	-0.0957341	0.0311563	0.280338	0	0	-0.314969	-0.0827152	-0.17006	-0.0846865	-0.2334	0.0214442	0.485378	1.1823	0	0	0.116767	-0.469146	0.342667	0.697873	1.2613	0	0
0.98	-3.05003	1.41901	-1.49175	0.604947	0.467546	0.910968	0.321338	-0.0637809	-0.268001	0.126136	0.175052	0	0	-0.462602	0.0518659	-0.102518	0.0437357	0.29251	0	0	-0.315591	-0.0790871	-0.173476	-0.0839917	-0.232983	0.0196702	0.486476	1.18545	0	0	0.114542	-0.466355	0.333069	0.699181	1.26233	0	0
0.99	-3.06115	1.41646	-1.47699	0.604256	0.479362	0.909317	0.321979	-0.0627519	-0.284276	0.152061	0.171925	0	0	-0.472453	0.0451843	-0.109062	0.0585577	0.304001	0	0	-0.31689	-0.0744614	-0.178501	-0.0829549	-0.232685	0.0177846	0.487458	1.18824	0	0	0.111006	-0.463086	0.322855	0.700114	1.2633	0	0
1	-3.07214	1.41415	-1.46201	0.603556	0.491424	0.907726	0.322865	-0.0626064	-0.297226	0.183799	0.168092	0	0	-0.48129	0.0378887	-0.116413	0.0751278	0.314577	0	0	-0.317863	-0.0694318	-0.184378	-0.081751	-0.232405	0.0160602	0.488497	1.19127	0	0	0.105812	-0.459748	0.311712	0.70087	1.26378	0	0
1.01	-3.08164	1.41216	-1.44786	0.602787	0.503749	0.906242	0.321033	-0.0612556	-0.302551	0.211042	0.162433	0	0	-0.489141	0.0300837	-0.124129	0.0932326	0.323764	0	0	-0.318326	-0.0641462	-0.191157	-0.08088	-0.232211	0.0147231	0.489667	1.19504	0	0	0.0992464	-0.456242	0.300194	0.701497	1.26381	0	0
1.02	-3.09028	1.41071	-1.43446	0.602021	0.516247	0.904916	0.320482	-0.0604852	-0.308122	0.237804	0.155436	0	0	-0.495497	0.0218644	-0.13263	0.113133	0.331342	0	0	-0.318371	-0.0587147	-0.197961	-0.0803706	-0.232131	0.014005	0.490795	1.19901	0	0	0.0919944	-0.452875	0.290053	0.70229	1.26329	0	0
1.03	-3.10307	1.40993	-1.41685	0.601369	0.528748	0.903857	0.319916	-0.0579956	-0.309136	0.257362	0.138079	0	0	-0.499365	0.0121891	-0.142245	0.135775	0.337259	0	0	-0.318189	-0.052378	-0.204389	-0.079455	-0.232006	0.013611	0.491324	1.20338	0	0	0.0849709	-0.449543	0.281834	0.702002	1.26246	0	0
1.04	-3.12748	1.40865	-1.38835	0.600938	0.541239	0.903223	0.316217	-0.050939	-0.301301	0.266414	0.105465	0	0	-0.501291	-0.000220656	-0.155059	0.162206	0.341414	0	0	-0.318348	-0.0441756	-0.209287	-0.077651	-0.231746	0.0137295	0.490225	1.2078	0	0	0.0788589	-0.445698	0.275693	0.699117	1.26175	0	0
1.05	3.13181	1.40747	-1.36107	0.600636	0.553948	0.90283	0.317356	-0.0470677	-0.302442	0.287352	0.074248	0	0	-0.501271	-0.0132781	-0.169751	0.192237	0.342977	0	0	-0.317901	-0.0362916	-0.212913	-0.0762168	-0.231219	0.0142999	0.487926	1.21135	0	0	0.0729651	-0.44163	0.270945	0.695032	1.26055	0	0
1.06	3.10599	1.4066	-1.33244	0.600438	0.566889	0.902711	0.31839	-0.0433286	-0.303945	0.310271	0.0489005	0	0	-0.498826	-0.0274201	-0.185782	0.226114	0.34104	0	0	-0.317111	-0.0281779	-0.215858	-0.0751078	-0.230449	0.0148237	0.485526	1.21424	0	0	0.0660647	-0.437615	0.266241	0.691604	1.25894	0	0
1.07	3.08093	1.40548	-1.30495	0.600293	0.580049	0.902954	0.318659	-0.0394828	-0.304167	0.334784	0.030638	0	0	-0.494633	-0.0422402	-0.201737	0.263531	0.334908	0	0	-0.316311	-0.0201292	-0.21839	-0.0743232	-0.229742	0.0161308	0.483527	1.21635	0	0	0.0586229	-0.433641	0.263282	0.687276	1.25759	0	0
1.08	3.0589	1.40416	-1.28061	0.600164	0.593414	0.903562	0.318341	-0.0358908	-0.302502	0.361361	0.0189628	0	0	-0.488676	-0.0573582	-0.216078	0.304126	0.323598	0	0	-0.315284	-0.0125466	-0.220705	-0.0744523	-0.228568	0.0175998	0.482221	1.2179	0	0	0.0508903	-0.429728	0.262501	0.681727	1.25649	0	0
1.09	3.0383	1.40341	-1.2581	0.600128	0.606933	0.90441	0.31857	-0.0324712	-0.299844	0.390133	0.0150483	0	0	-0.479502	-0.0727247	-0.228387	0.348369	0.305938	0	0	-0.313111	-0.00560949	-0.222721	-0.0753824	-0.227017	0.0201099	0.481492	1.21878	0	0	0.0424218	-0.426149	0.263044	0.676379	1.25491	0	0
1.1	3.01025	1.40331	-1.2296	0.600408	0.620417	0.905455	0.316803	-0.0256171	-0.293536	0.412847	0.0165284	0	0	-0.465309	-0.0899372	-0.240577	0.398229	0.281468	0	0	-0.30965	0.00166673	-0.223448	-0.075675	-0.225347	0.0242853	0.479963	1.2182	0	0	0.033357	-0.423243	0.26549	0.671303	1.25328	0	0
1.11	2.96594	1.40353	-1.18683	0.601123	0.633671	0.906696	0.309331	-0.0119364	-0.282112	0.419864	0.0172656	0	0	-0.444751	-0.110758	-0.253529	0.455125	0.249157	0	0	-0.305033	0.0106481	-0.221956	-0.0747049	-0.223865	0.0312844	0.476913	1.21632	0	0	0.0246776	-0.420725	0.26999	0.666105	1.25156	0	0
1.12	2.90873	1.40447	-1.13255	0.602159	0.646672	0.90799	0.297541	0.00638975	-0.268072	0.412929	0.0151228	0	0	-0.417729	-0.134412	-0.265378	0.517799	0.207878	0	0	-0.299068	0.0208318	-0.218401	-0.0735213	-0.222689	0.0397836	0.473476	1.21321	0	0	0.0168672	-0.418227	0.27557	0.661131	1.2497	0	0
1.13	2.86709	1.41203	-1.0935	0.603046	0.659821	0.908453	0.303823	0.00989785	-0.278703	0.434887	0.0263383	0	0	-0.381245	-0.153087	-0.271021	0.584438	0.156729	0	0	-0.286328	0.0251355	-0.215806	-0.0751253	-0.221963	0.0506742	0.471062	1.2059	0	0	0.00771362	-0.417359	0.286028	0.657787	1.24736	0	0
1.14	2.80864	1.41691	-1.03864	0.604202	0.672571	0.909259	0.296404	0.0234852	-0.27356	0.428725	0.0298167	0	0	-0.344579	-0.173956	-0.271976	0.649591	0.101262	0	0	-0.275701	0.0322182	-0.210949	-0.0762396	-0.221022	0.0592021	0.468873	1.19743	0	0	0.000180736	-0.41691	0.297839	0.655424	1.24531	0	0
1.15	2.761	1.42397	-0.994241	0.605135	0.685311	0.909704	0.296556	0.029271	-0.278161	0.43789	0.0423284	0	0	-0.305583	-0.189988	-0.26683	0.712971	0.0433003	0	0	-0.263141	0.0360523	-0.206913	-0.0792339	-0.220893	0.0693965	0.468991	1.1828	0	0	-0.00821263	-0.41768	0.311861	0.655885	1.24073	0	0
1.16	2.7097	1.42764	-0.946492	0.606092	0.697704	0.910512	0.289377	0.0395963	-0.274561	0.436318	0.0516289	0	0	-0.268338	-0.206691	-0.259932	0.774627	-0.0144321	0	0	-0.253877	0.041657	-0.201507	-0.0820243	-0.22068	0.0760239	0.469963	1.17134	0	0	-0.0147847	-0.417872	0.324376	0.656228	1.23881	0	0
1.17	2.66941	1.42964	-0.909767	0.606935	0.709843	0.91159	0.280677	0.0488796	-0.269339	0.436212	0.0619001	0	0	-0.232433	-0.221084	-0.250527	0.834188	-0.0733337	0	0	-0.247607	0.0465824	-0.195564	-0.0853316	-0.220711	0.0803186	0.473089	1.162	0	0	-0.0205208	-0.41772	0.334274	0.657587	1.23979	0	0
1.18	2.64323	1.4301	-0.88721	0.60769	0.721713	0.91301	0.269697	0.05725	-0.262203	0.436289	0.0719275	0	0	-0.198115	-0.23327	-0.239625	0.891268	-0.132802	0	0	-0.244735	0.0505239	-0.189015	-0.0886972	-0.220887	0.0815452	0.477643	1.15738	0	0	-0.0249264	-0.417099	0.341865	0.6588	1.24417	0	0
1.19	2.63358	1.42967	-0.881098	0.608325	0.73341	0.914717	0.256588	0.064136	-0.253474	0.436557	0.0817112	0	0	-0.165902	-0.242712	-0.228435	0.944508	-0.18556	0	0	-0.244539	0.052869	-0.182439	-0.0920054	-0.221728	0.0820197	0.483153	1.15456	0	0	-0.0285949	-0.416386	0.348255	0.660248	1.25034	0	0
1.2	2.55807	1.39406	-0.80828	0.608434	0.743439	0.920666	0.203638	0.106849	-0.253229	0.389545	0.0556926	0	0	-0.155045	-0.286654	-0.224246	0.990606	-0.233798	0	0	-0.271391	0.0908359	-0.169169	-0.0855378	-0.228264	0.0837947	0.486191	1.15115	0	0	-0.0198466	-0.404937	0.351075	0.647574	1.26302	0	0
1.21	2.63543	1.42931	-0.88969	0.609245	0.756396	0.918518	0.225621	0.0745521	-0.236752	0.430822	0.0987566	0	0	-0.105516	-0.254279	-0.210061	1.03434	-0.255953	0	0	-0.245506	0.0539206	-0.17068	-0.0980484	-0.225711	0.0833639	0.495416	1.14964	0	0	-0.035748	-0.413926	0.355862	0.661519	1.2783	0	0
1.22	2.64732	1.42968	-0.905506	0.609637	0.767726	0.920641	0.207422	0.0778153	-0.23124	0.424378	0.104867	0	0	-0.0782357	-0.256252	-0.202907	1.07185	-0.255223	0	0	-0.246586	0.0523061	-0.165018	-0.099717	-0.228141	0.0833849	0.499352	1.14996	0	0	-0.039837	-0.412236	0.356962	0.662289	1.28689	0	0
1.23	2.66654	1.43241	-0.928959	0.610056	0.778871	0.92263	0.191302	0.0784404	-0.225638	0.417448	0.108728	0	0	-0.0483463	-0.255138	-0.195012	1.11186	-0.223561	0	0	-0.246175	0.0478253	-0.160091	-0.100323	-0.230466	0.084393	0.501311	1.15044	0	0	-0.0448178	-0.410785	0.355711	0.663778	1.29813	0	0
